<?xml version="1.0" encoding="utf-8"?>
<!-- Generator: Adobe Illustrator 24.2.0, SVG Export Plug-In . SVG Version: 6.00 Build 0)  -->
<svg version="1.1" id="Ebene_1" xmlns="http://www.w3.org/2000/svg" xmlns:xlink="http://www.w3.org/1999/xlink" x="0px" y="0px"
	 viewBox="0 0 100 62.7" style="enable-background:new 0 0 100 62.7;" xml:space="preserve">
<style type="text/css">
	.st0{fill:none;}
	.st1{fill:#FB1D5C;}
</style>
<rect id="canvas" y="0.6" class="st0" width="100" height="61.1"/>
<g id="noun_Bike_651641">
	<g id="Group">
		<path id="Shape" class="st1" d="M99,36.7c-3.5-10-14.2-15.3-24.3-12.1l-5.6-12.4l1.4-3.8H75v-4H58.7c-0.9,0-1.4,1.6-0.2,1.9
			l8.1,1.9l-1.4,3.9H30.9l1.4-4.9c1.1-3.6,7-2.7,10-2.7V0.6c-5.1,0-11.8-0.9-13.7,5.5L23,24c-8.9-1.8-17.9,2.8-21.6,11.1
			c-4.1,9.6,0.3,20.8,9.9,24.9c0,0,0.1,0,0.1,0.1c9.7,4.2,21-0.3,25.3-10c4.1-9.6-0.4-20.7-10-24.8c-0.1,0-0.2-0.1-0.3-0.1l1.4-4.9
			l17.6,19.3v0.8c0,3.2,2.5,5.8,5.7,5.8c0.1,0,0.1,0,0.2,0h0.3l1.9,3.5l-1.9,1l1.3,2.5l6.4-3.5L58,47.3l-2,1l-1-2.1h6.8
			C64,56.5,74.1,63.1,84.4,61c0.8-0.2,1.5-0.4,2.2-0.6c9.8-2.8,15.4-12.9,12.7-22.7C99.2,37.3,99.1,37,99,36.7z M33.3,48.9
			C29.8,56.6,20.7,60,13,56.6s-11.2-12.3-7.8-20c0-0.1,0-0.1,0.1-0.2c2.9-6.3,9.7-9.8,16.5-8.6L17.4,42c-0.3,1,0.3,2.1,1.3,2.4
			c1,0.3,2.1-0.3,2.4-1.3l0,0l4.5-14.4c7.6,3.2,11.2,12,8,19.7C33.5,48.5,33.4,48.7,33.3,48.9z M45.4,33.4l0.3-0.2l0.9,1.7
			L45.4,33.4z M52,34.5c-0.8,0.1-1.5,0.2-2.2,0.3l-1.4-2.7l2-1.1L49,28.7l-5.4,2.7l-14-15.5h34.1L56.2,36C55,35.1,53.5,34.5,52,34.5
			z M61.6,42.7h-3.8l9.6-25.3l3.9,8.8C65.3,29.6,61.7,35.9,61.6,42.7z M72.9,29.6l5.9,12.9H65.5C65.5,37.2,68.3,32.2,72.9,29.6z
			 M85,57.3c-7.9,2.4-17.6-2.6-19.3-10.8h15.8c1.1,0,2-0.9,2-2.1c0-0.2,0-0.5-0.1-0.7L76.2,28c8.1-2.4,16.7,2.1,19.2,10.2
			c2.4,8-2.1,16.5-10.1,18.9C85.2,57.3,85.1,57.3,85,57.3z"/>
	</g>
</g>
</svg>
